<?xml version="1.0" encoding="UTF-8"?>
<svg id="CNIGA" xmlns="http://www.w3.org/2000/svg" version="1.1" viewBox="0 0 278 80">
  <!-- Generator: Adobe Illustrator 29.7.1, SVG Export Plug-In . SVG Version: 2.1.1 Build 8)  -->
  <defs>
    <style>
      .st0 {
        fill: #f26c50;
      }

      .st1 {
        fill: #feebcd;
      }
    </style>
  </defs>
  <g id="Full_Logo">
    <g id="Sun_Mark">
      <path class="st1" d="M39.5,62.6c-.23-.14-.44-.26-.64-.4-4.51-3-9.39-5.11-14.71-6.17-.6-.12-.92-.35-1.07-1.05-1.16-5.27-3.01-10.27-6.16-14.7-.41-.57-.32-.96.04-1.49,2.98-4.43,4.99-9.27,6.08-14.49.16-.76.48-1.04,1.21-1.2,5.24-1.13,10.17-3.05,14.63-6.07.49-.33.81-.27,1.27.04,4.51,2.99,9.39,5.12,14.71,6.18.7.14.98.5,1.13,1.18,1.11,5.21,3,10.1,6.07,14.49.41.59.41,1,.03,1.59-2.92,4.5-5.11,9.31-6.12,14.6-.12.64-.41.9-1.08,1.04-5.29,1.11-10.23,3.11-14.76,6.08-.2.13-.41.24-.62.37Z"/>
      <g>
        <path class="st0" d="M55.24,64.41c.04,3.03.44,6.02,1.17,8.96.22.88.02,1.35-.84,1.64-1.22.41-2.49,1.38-3.6,1.21-1.16-.18-1.46-1.92-2.2-2.94-1.61-2.22-3.37-4.32-5.37-6.2-.62-.58-.49-.83.16-1.21,3.08-1.79,6.35-3.12,9.8-4.04.59-.16.93-.08.89.64-.04.64,0,1.29,0,1.93Z"/>
        <path class="st0" d="M12.89,44.32c2.1,3.45,3.64,7,4.71,10.77.17.6-.04.71-.56.69-3.79-.1-7.54.29-11.21,1.23-.69.18-1.08-.01-1.31-.64-.03-.08-.07-.14-.1-.22-.48-1.19-1.4-2.42-1.31-3.57.08-1.18,1.79-1.44,2.75-2.14,2.49-1.79,4.77-3.81,7.03-6.13Z"/>
        <path class="st0" d="M23.66,14.92c-.09-2.66-.42-5.62-1.16-8.51-.2-.8-.18-1.3.79-1.59,1.07-.31,2.08-.86,3.11-1.31.53-.23.84-.14,1.15.41,1.84,3.25,4.2,6.1,6.88,8.67.61.59.57.86-.16,1.29-3.05,1.76-6.29,3.05-9.68,3.98-.66.18-1,.09-.95-.69.04-.64,0-1.29,0-2.25Z"/>
        <path class="st0" d="M56.58,5.53c-.89,3.54-1.26,6.85-1.47,10.19-.15,2.27-.21,2.26-2.43,1.63-2.88-.82-5.57-2.05-8.16-3.55-.64-.37-.68-.62-.14-1.12,2.8-2.59,5.09-5.59,7.02-8.86.21-.36.42-.55.86-.38,1.28.47,2.59.9,3.81,1.52.38.19.56.44.51.58Z"/>
        <path class="st0" d="M17.43,24.65c-.89,3.87-2.3,7.23-4.22,10.38-.46.75-.72.1-.97-.16-2.38-2.49-5.04-4.63-7.95-6.44q-1.54-.96-.9-2.65c1.12-2.99,1.12-2.95,4.24-2.34,2.93.57,5.89.83,8.88.82.4,0,1.1-.25.92.39Z"/>
        <path class="st0" d="M73.63,56.79c-2.89-.74-5.84-1.11-8.82-1.27-.68-.04-1.37-.05-2.05-.06-1.44-.01-1.45,0-1.1-1.33.83-3.17,2.08-6.16,3.71-9.01.4-.7.64-.94,1.33-.22,2.66,2.76,5.6,5.19,9.04,6.96.35.18.36.38.25.67-.47,1.28-.88,2.59-1.51,3.81-.19.37-.41.6-.85.45Z"/>
        <path class="st0" d="M26.75,76.31c-1.32-.45-2.73-.92-4.05-1.63-.4-.22-.25-.49-.16-.81.91-3.64,1.35-7.34,1.29-11.1-.01-.72.07-1,.91-.8,3.42.84,6.63,2.18,9.67,3.95.69.4.58.67.09,1.13-2.76,2.57-5.03,5.52-6.97,8.75-.16.27-.24.63-.78.5Z"/>
        <path class="st0" d="M65.98,35.25c-.37-.02-.42-.3-.53-.49-1.8-3.07-3.15-6.33-4.03-9.78-.14-.57-.1-.92.64-.9,3.84.06,7.63-.3,11.34-1.32.49-.13.59.13.71.4.55,1.25,1.05,2.52,1.6,3.77.21.47-.04.64-.38.84-3.33,1.93-6.27,4.35-8.95,7.11-.14.14-.28.27-.4.38Z"/>
        <path class="st1" d="M39.53,1.09c2.15-.38,4.15.59,6.24.68.62.03.51.31.26.69-1.7,2.59-3.65,4.97-5.93,7.08-.54.5-1.09.46-1.59-.04-2.14-2.13-4.06-4.43-5.68-6.97-.19-.29-.43-.73.23-.76,2.18-.1,4.25-1.08,6.47-.69Z"/>
        <path class="st1" d="M39.28,79c-1.89-.54-3.92-.63-5.93-.85-.51-.06-.83-.31-.43-.89,1.76-2.6,3.63-5.09,6.07-7.11.5-.42.76-.35,1.2.05,2.2,2.08,4.09,4.41,5.78,6.92.41.61.3.84-.36.95-.55.09-1.11.21-1.66.23-1.55.04-3.04.45-4.66.71Z"/>
        <path class="st1" d="M18.53,15.18c0,.81,0,1.34,0,1.86,0,1.74,0,1.81-1.8,1.87-2.73.1-5.43-.33-8.12-.75-.76-.12-.75-.58-.36-1.12,1.87-2.58,4.05-4.87,6.47-6.93.58-.49,1.2-.93,1.82-1.38.92-.68,1.18-.63,1.37.54.33,2.05.82,4.09.63,5.91Z"/>
        <path class="st1" d="M1.74,33.16c.12.08.3.18.46.29,2.54,1.72,4.84,3.73,6.95,5.95.38.4.43.67.02,1.1-2.06,2.16-4.31,4.1-6.78,5.78-.88.6-1.21.45-1.26-.6-.06-1.2-.43-2.39-.25-3.6.1-.7-.59-1.11-.5-1.81.29-2.2.52-4.41.8-6.61.03-.23.08-.6.57-.51Z"/>
        <path class="st1" d="M78.01,39.43c.13,2.26-.15,4.4-.44,6.55-.11.79-.3.89-.96.46-2.59-1.67-4.8-3.77-6.93-5.97-.43-.45-.39-.8.02-1.23,2.03-2.13,4.22-4.07,6.7-5.68.71-.46,1.04-.49,1.2.57.28,1.79.54,3.57.41,5.3Z"/>
        <path class="st1" d="M15.06,60.78c3.46,0,3.51,0,3.45,2.63-.06,2.4-.3,4.79-.73,7.16-.13.75-.48.97-1.15.49-3.23-2.36-6.02-5.16-8.39-8.38-.48-.66-.27-1.02.48-1.15,2.37-.4,4.76-.67,6.33-.74Z"/>
        <path class="st1" d="M63.36,61.02c2.33-.04,4.62.27,6.91.69.78.14.88.33.44.98-1.59,2.34-3.52,4.36-5.63,6.23-.96.85-2.02,1.57-3.01,2.38-.46.38-.67.32-.8-.25-.73-3.09-.99-6.23-.89-9.4.01-.47.26-.63.69-.63.76,0,1.53,0,2.29,0Z"/>
        <path class="st1" d="M60.38,16.01c-.05-2.33.38-4.62.76-6.91.11-.65.45-.97,1.07-.48,3.15,2.5,6.16,5.14,8.43,8.52.29.43.51.84-.18.96-2.91.51-5.84.96-8.82.74-.98-.07-1.45-.47-1.27-1.51.07-.43.01-.88.01-1.33Z"/>
      </g>
    </g>
    <g id="CNIGA1" data-name="CNIGA">
      <path class="st1" d="M173.01,45.47c0-7.46,0-14.65,0-21.83,0-3.09-.34-2.68,2.8-2.71,1.01,0,2.03.05,3.03-.01,1.24-.07,1.7.44,1.67,1.67-.06,2.44-.02,4.88-.02,7.32,0,8.8-.05,17.61.04,26.41.02,1.76-.53,2.17-2.21,2.14-4.96-.1-4.9-.07-7.88-4.06-4.86-6.5-9.8-12.93-14.71-19.4-.25-.33-.51-.82-.94-.68-.59.19-.34.82-.34,1.25-.01,6.96-.06,13.92.03,20.88.02,1.6-.44,2.15-2.01,1.97-1.7-.2-3.89.71-4.99-.38-.98-.96-.18-3.11-.18-4.73-.04-9.75-.02-19.51-.02-29.27,0-3.12.01-2.91,3.25-3.18,2.73-.23,4.26.86,5.82,2.99,5.19,7.14,10.61,14.1,15.95,21.13.1.13.28.2.71.49Z"/>
      <path class="st1" d="M124.44,20.5c7.16-.02,12.22,2.01,16,6.9.79,1.03.7,1.67-.48,2.17-.11.05-.22.1-.31.17-2.66,2.24-4.79,2.87-7.93-.05-3.43-3.19-8.16-2.88-12.22-.69-3.87,2.08-5.69,5.68-5.81,10.15-.12,4.59,1.25,8.4,5.2,11.03,3.99,2.67,11.07,2.54,14.36-1.52,1.26-1.56,2.35-1.81,3.81-.35.62.62,1.42,1.06,2.15,1.57,2.11,1.45,2.05,1.38.25,3.34-7.91,8.63-23.88,7.73-30.69-2.46-5.06-7.57-4.22-18.26,2.1-24.63,3.99-4.02,8.97-5.87,13.57-5.65Z"/>
      <path class="st1" d="M231.1,38.41c2.2,0,4.4.03,6.6-.01.92-.02,1.4.18,1.43,1.26.24,8.58-4.7,17.58-14.31,19.22-10.8,1.85-21-3.72-22.75-15.35-1.01-6.76.31-13.17,5.81-18.03,3.02-2.67,6.51-4.12,10.55-4.68,5.05-.7,9.65.21,13.97,2.8.25.15.52.29.76.47,3.16,2.44,3.11,3.16-.29,5.39-.66.43-.99.12-1.35-.29-4.42-4.99-14.01-5.38-19.1-1.22-4.36,3.56-5.9,8.27-5.34,13.62.47,4.55,2.6,8.42,6.65,10.84,5.83,3.48,14.5,2.76,18.58-3.83.83-1.34,1.13-2.85,1.58-4.32.32-1.06-.1-1.26-1-1.25-2.8.02-5.6-.09-8.39.04-2.02.1-1.8-1.15-1.83-2.43-.03-1.31-.02-2.37,1.82-2.26,2.19.13,4.4.03,6.6.03Z"/>
      <path class="st1" d="M259.76,48.06c-2.44,0-4.88.04-7.32-.02-1.07-.02-1.72.21-2.11,1.37-.83,2.41-1.92,4.72-2.78,7.12-.51,1.43-1.23,2-2.83,1.92-3.2-.16-3.09,0-1.86-2.98,4.03-9.75,7.97-19.54,11.94-29.32.25-.6.47-1.22.73-1.82,1.73-4.01.5-3.28,5-3.47,1.64-.07,2.37.48,2.98,1.99,4.55,11.27,9.18,22.5,13.83,33.73.53,1.29.42,1.82-1.14,1.83-3.4.01-3.38.06-4.62-3.16-.79-2.05-1.68-4.06-2.39-6.13-.33-.96-.92-1.1-1.75-1.09-2.56.02-5.12,0-7.67,0ZM259.7,43.75c2.02,0,4.04,0,6.05,0,.86,0,1.41-.11.96-1.22-2.08-5.09-4.11-10.21-6.15-15.32-.13-.34-.22-.75-.61-.8-.48-.06-.46.44-.59.75-2.07,5.09-4.12,10.2-6.24,15.28-.45,1.08-.24,1.35.87,1.32,1.9-.05,3.8-.01,5.7-.01Z"/>
      <path class="st1" d="M194.09,39.75c0,5.59-.05,11.17.03,16.76.02,1.45-.34,2.13-1.87,1.9-.41-.06-.84-.05-1.25,0-1.29.17-1.6-.43-1.59-1.63.04-11.41.05-22.82,0-34.23,0-1.42.53-1.69,1.78-1.65,3.37.1,2.88-.3,2.9,2.81.02,5.35,0,10.7,0,16.05Z"/>
    </g>
  </g>
</svg>