<?xml version="1.0" encoding="UTF-8"?>
<svg id="CNIGA" xmlns="http://www.w3.org/2000/svg" version="1.1" viewBox="0 0 276 80">
  <!-- Generator: Adobe Illustrator 29.7.1, SVG Export Plug-In . SVG Version: 2.1.1 Build 8)  -->
  <defs>
    <style>
      .st0 {
        fill: #fff;
      }
    </style>
  </defs>
  <g id="Full_Logo">
    <g id="CNIGA1" data-name="CNIGA">
      <path class="st0" d="M40.65,62.8c-.23-.14-.44-.26-.64-.4-4.53-3.01-9.44-5.14-14.79-6.21-.6-.12-.92-.36-1.08-1.05-1.17-5.3-3.02-10.32-6.19-14.78-.41-.58-.32-.96.04-1.5,2.99-4.45,5.02-9.32,6.12-14.56.16-.77.48-1.05,1.21-1.21,5.27-1.13,10.22-3.07,14.71-6.11.5-.34.81-.27,1.28.04,4.53,3.01,9.44,5.15,14.79,6.21.71.14.99.5,1.13,1.19,1.12,5.24,3.02,10.16,6.1,14.57.41.59.42,1,.03,1.6-2.94,4.52-5.14,9.36-6.16,14.69-.12.65-.41.91-1.08,1.05-5.32,1.12-10.29,3.13-14.84,6.11-.2.13-.41.24-.63.37Z"/>
      <path class="st0" d="M56.47,64.54c.04,3.05.44,6.06,1.18,9.01.22.89.02,1.36-.84,1.65-1.23.42-2.5,1.39-3.62,1.22-1.17-.18-1.47-1.93-2.21-2.96-1.62-2.24-3.39-4.35-5.4-6.24-.62-.58-.49-.83.16-1.21,3.1-1.8,6.39-3.13,9.85-4.06.6-.16.93-.08.89.65-.04.65,0,1.3,0,1.94Z"/>
      <path class="st0" d="M13.89,44.34c2.11,3.47,3.66,7.04,4.74,10.83.17.6-.04.71-.56.7-3.81-.1-7.58.29-11.28,1.24-.7.18-1.08-.01-1.32-.65-.03-.08-.07-.15-.1-.22-.48-1.2-1.4-2.43-1.32-3.59.08-1.19,1.8-1.45,2.77-2.15,2.51-1.8,4.8-3.83,7.07-6.16Z"/>
      <path class="st0" d="M24.72,14.78c-.09-2.68-.42-5.65-1.17-8.56-.21-.8-.18-1.31.8-1.6,1.08-.32,2.09-.86,3.13-1.32.53-.23.84-.14,1.16.41,1.85,3.26,4.22,6.13,6.92,8.72.62.59.58.87-.16,1.3-3.07,1.77-6.32,3.06-9.73,4-.66.18-1,.09-.95-.69.04-.64,0-1.29,0-2.26Z"/>
      <path class="st0" d="M57.83,5.34c-.9,3.56-1.26,6.89-1.48,10.24-.15,2.29-.21,2.28-2.45,1.64-2.89-.83-5.6-2.07-8.21-3.56-.64-.37-.68-.63-.14-1.13,2.81-2.6,5.11-5.62,7.06-8.91.21-.36.42-.55.86-.39,1.29.48,2.6.9,3.83,1.52.38.19.56.44.52.58Z"/>
      <path class="st0" d="M18.46,24.57c-.89,3.89-2.31,7.27-4.24,10.44-.46.76-.73.1-.97-.16-2.39-2.5-5.06-4.65-8-6.48q-1.55-.96-.91-2.66c1.13-3.01,1.12-2.97,4.27-2.36,2.94.58,5.92.84,8.93.83.41,0,1.11-.25.93.39Z"/>
      <path class="st0" d="M74.97,56.88c-2.91-.74-5.87-1.12-8.87-1.28-.69-.04-1.37-.05-2.06-.06-1.44-.01-1.46,0-1.11-1.34.84-3.18,2.09-6.2,3.73-9.06.41-.71.64-.95,1.34-.22,2.68,2.78,5.63,5.22,9.09,7,.35.18.36.38.25.68-.47,1.29-.89,2.6-1.52,3.83-.19.37-.41.6-.85.45Z"/>
      <path class="st0" d="M27.83,76.51c-1.33-.45-2.75-.92-4.07-1.64-.4-.22-.25-.49-.16-.82.92-3.66,1.36-7.38,1.29-11.16-.01-.72.07-1.01.91-.8,3.44.85,6.66,2.19,9.72,3.97.7.41.58.68.09,1.14-2.77,2.58-5.06,5.55-7,8.8-.16.27-.25.63-.78.5Z"/>
      <path class="st0" d="M67.28,35.22c-.37-.02-.42-.3-.53-.49-1.81-3.09-3.17-6.36-4.05-9.83-.15-.57-.1-.92.64-.91,3.86.07,7.68-.3,11.4-1.33.49-.14.6.13.71.4.55,1.26,1.06,2.54,1.61,3.79.21.47-.04.64-.39.84-3.35,1.94-6.31,4.38-9,7.15-.14.14-.29.27-.4.38Z"/>
      <path class="st0" d="M40.68.88c2.17-.38,4.17.6,6.28.68.62.03.51.31.26.7-1.71,2.61-3.67,5-5.96,7.12-.54.5-1.09.46-1.6-.04-2.15-2.14-4.08-4.45-5.71-7.01-.19-.29-.43-.73.23-.76,2.19-.1,4.27-1.09,6.5-.69Z"/>
      <path class="st0" d="M40.43,79.21c-1.9-.54-3.94-.63-5.97-.86-.52-.06-.83-.31-.44-.89,1.77-2.61,3.65-5.12,6.1-7.15.5-.42.77-.36,1.2.05,2.22,2.09,4.11,4.44,5.82,6.96.41.61.3.84-.36.95-.56.09-1.11.21-1.67.23-1.56.04-3.06.45-4.69.71Z"/>
      <path class="st0" d="M19.57,15.04c0,.82,0,1.34,0,1.87,0,1.75,0,1.82-1.81,1.88-2.75.1-5.46-.33-8.17-.76-.76-.12-.75-.58-.36-1.13,1.88-2.59,4.07-4.9,6.5-6.97.58-.5,1.21-.94,1.83-1.39.93-.69,1.19-.63,1.38.54.33,2.06.83,4.12.63,5.94Z"/>
      <path class="st0" d="M2.69,33.13c.12.08.3.18.46.29,2.56,1.73,4.86,3.75,6.98,5.99.38.41.43.68.02,1.11-2.07,2.17-4.33,4.13-6.81,5.81-.89.6-1.22.45-1.27-.61-.06-1.21-.44-2.4-.26-3.61.11-.7-.59-1.12-.5-1.82.29-2.21.52-4.43.8-6.64.03-.23.08-.61.57-.51Z"/>
      <path class="st0" d="M79.38,39.42c.13,2.27-.15,4.43-.44,6.59-.11.8-.3.89-.97.46-2.6-1.68-4.83-3.79-6.96-6-.44-.45-.39-.8.02-1.24,2.04-2.15,4.24-4.1,6.73-5.71.71-.46,1.05-.49,1.21.57.28,1.8.54,3.59.41,5.33Z"/>
      <path class="st0" d="M16.07,60.89c3.48,0,3.53,0,3.47,2.64-.06,2.41-.3,4.82-.73,7.2-.14.75-.48.98-1.15.49-3.25-2.37-6.06-5.19-8.43-8.43-.48-.66-.28-1.03.48-1.15,2.38-.4,4.78-.68,6.36-.75Z"/>
      <path class="st0" d="M64.64,61.14c2.34-.04,4.64.28,6.94.69.78.14.89.33.45.98-1.6,2.35-3.54,4.39-5.66,6.26-.96.85-2.03,1.58-3.02,2.4-.46.38-.67.32-.81-.25-.74-3.11-1-6.27-.9-9.46.01-.47.26-.63.69-.63.77,0,1.54,0,2.3,0Z"/>
      <path class="st0" d="M61.64,15.87c-.05-2.35.39-4.64.76-6.94.11-.65.45-.97,1.07-.48,3.17,2.52,6.19,5.17,8.48,8.56.29.44.51.85-.18.97-2.93.51-5.87.97-8.87.74-.98-.07-1.45-.47-1.27-1.52.07-.43.01-.89.01-1.33Z"/>
    </g>
    <g id="Sun_Mark">
      <path class="st0" d="M165.67,20.6l-11.6,38.77h-9.35l-8.3-27.68-8.3,27.68h-9.35l-11.57-38.77h8.03l8.33,29.74,8.68-29.74h8.54l8.65,29.74,8.35-29.74h7.89Z"/>
      <path class="st0" d="M181.33,20.6v38.77h-7.73V20.6h7.73Z"/>
      <path class="st0" d="M211.32,19.9c3.03,0,5.8.52,8.31,1.55,2.51,1.04,4.65,2.5,6.39,4.39l-5.57,5.46c-2.38-2.72-5.5-4.08-9.35-4.08-3.57,0-6.5,1.19-8.8,3.56-2.3,2.37-3.45,5.44-3.45,9.21,0,2.58.54,4.85,1.64,6.83,1.09,1.97,2.55,3.47,4.38,4.5,1.83,1.03,3.86,1.54,6.1,1.54,3.12,0,5.6-.73,7.45-2.19,1.85-1.46,3.03-3.58,3.55-6.35h-9.84v-6.46h17.82c.07.67.11,1.4.11,2.19,0,2.88-.47,5.57-1.42,8.07-.95,2.5-2.25,4.62-3.91,6.37-1.66,1.75-3.66,3.12-6,4.11-2.34.99-4.88,1.49-7.6,1.49s-5.25-.47-7.69-1.41c-2.44-.94-4.6-2.25-6.46-3.93-1.87-1.69-3.35-3.8-4.46-6.35-1.11-2.55-1.66-5.35-1.66-8.39,0-3.86.87-7.31,2.62-10.37,1.75-3.06,4.18-5.44,7.3-7.15,3.12-1.71,6.63-2.57,10.54-2.57Z"/>
      <path class="st0" d="M258.1,19.9c3.59,0,6.86.77,9.81,2.31,2.96,1.54,5.22,3.66,6.79,6.37l-6.65,4.08c-1.12-1.69-2.53-3.01-4.24-3.95-1.71-.94-3.63-1.41-5.76-1.41-3.55,0-6.48,1.18-8.79,3.53-2.31,2.35-3.46,5.4-3.46,9.15.02,3.82,1.19,6.89,3.51,9.21,2.32,2.32,5.24,3.47,8.73,3.47,4.31,0,7.68-1.77,10.11-5.3l6.3,4.54c-1.75,2.56-4.04,4.56-6.88,6.02-2.84,1.45-6,2.18-9.48,2.18-2.94,0-5.67-.5-8.21-1.51-2.53-1.01-4.69-2.4-6.46-4.16-1.78-1.77-3.17-3.89-4.18-6.38-1.01-2.49-1.51-5.17-1.51-8.06,0-3.84.86-7.29,2.58-10.34,1.72-3.05,4.14-5.44,7.25-7.16,3.11-1.72,6.62-2.58,10.53-2.58Z"/>
    </g>
  </g>
</svg>